
        <svg xmlns="http://www.w3.org/2000/svg" xmlns:xlink="http://www.w3.org/1999/xlink" version="1.1" width="3168.5393258426966" 
        height="2528.0898876404494" viewBox="0 0 3168.5393258426966 2528.0898876404494">
			
			<g transform="scale(8.426966292134832) translate(10, 10)">
				<defs id="SvgjsDefs1033"></defs><g id="SvgjsG1034" featureKey="LwVBM5-0" transform="matrix(1.2500046491795842,0,0,1.2500046491795842,-12.656671391504693,77.49995350820416)" fill="#44a9a5"><path xmlns="http://www.w3.org/2000/svg" d="M33.33,35.885c0.168,0,0.339-0.022,0.508-0.069c1.005-0.281,1.595-1.328,1.313-2.333c-0.136-0.487-0.453-0.893-0.895-1.141  s-0.95-0.309-1.437-0.175c-0.487,0.136-0.893,0.452-1.142,0.894c-0.249,0.44-0.312,0.952-0.175,1.439  C31.737,35.336,32.5,35.885,33.33,35.885z M33.301,33.889c0.01-0.002,0.019-0.004,0.028-0.004c0.046,0,0.088,0.031,0.101,0.078  l-0.072,0.131c-0.044,0.014-0.118-0.024-0.132-0.074C33.21,33.964,33.242,33.905,33.301,33.889z"></path><path xmlns="http://www.w3.org/2000/svg" d="M40.539,44.528c0.083,0.021,0.168,0.032,0.252,0.032c0.221,0,0.438-0.073,0.615-0.212c0.245-0.191,0.388-0.485,0.385-0.797  c-0.01-1.156-0.169-11.389-2.572-14.47c-1.259-1.614-3.071-2.642-5.103-2.893c-2.026-0.248-4.039,0.304-5.654,1.563  c-1.614,1.259-2.642,3.071-2.893,5.104c-0.252,2.032,0.304,4.04,1.563,5.654C29.535,41.591,39.42,44.236,40.539,44.528z   M27.554,33.102c0.186-1.502,0.945-2.842,2.139-3.772c1.005-0.784,2.217-1.198,3.472-1.198c0.234,0,0.471,0.015,0.707,0.044  c1.501,0.186,2.841,0.944,3.771,2.138c1.474,1.89,1.993,8.358,2.117,11.927c-3.43-0.99-9.576-3.069-11.051-4.959  C27.778,36.087,27.368,34.604,27.554,33.102z"></path><path xmlns="http://www.w3.org/2000/svg" d="M52.922,58.654c-1.188-0.526-2.424-1.125-3.581-1.693c-0.498-0.244-1.095-0.04-1.338,0.457  c-0.243,0.495-0.039,1.095,0.457,1.338c1.176,0.578,2.432,1.187,3.651,1.727c0.132,0.059,0.27,0.086,0.404,0.086  c0.384,0,0.75-0.222,0.915-0.595C53.654,59.468,53.427,58.878,52.922,58.654z"></path><path xmlns="http://www.w3.org/2000/svg" d="M38.125,52.191c-1.512-0.395-2.871-0.586-4.201-0.586c-0.553,0-0.978,0.447-0.978,1s0.47,1,1.022,1  c1.112,0,2.307,0.171,3.65,0.521c0.085,0.021,0.17,0.032,0.254,0.032c0.443,0,0.85-0.298,0.967-0.747  C38.979,52.877,38.659,52.331,38.125,52.191z"></path><path xmlns="http://www.w3.org/2000/svg" d="M67.577,59.337c-1.209,0.506-2.428,0.883-3.623,1.118c-0.542,0.107-0.895,0.634-0.788,1.175  c0.095,0.477,0.513,0.807,0.98,0.807c0.064,0,0.129-0.006,0.194-0.019c1.327-0.263,2.676-0.678,4.008-1.235  c0.51-0.214,0.75-0.8,0.537-1.309C68.671,59.364,68.086,59.124,67.577,59.337z"></path><path xmlns="http://www.w3.org/2000/svg" d="M60.217,60.741c-0.153-0.007-0.307-0.017-0.466-0.029c-0.964-0.075-2.012-0.291-3.204-0.662  c-0.53-0.163-1.088,0.132-1.252,0.658c-0.164,0.527,0.131,1.088,0.658,1.252c1.337,0.415,2.528,0.659,3.639,0.746  c0.178,0.015,0.354,0.024,0.529,0.033c0.017,0.001,0.032,0.001,0.049,0.001c0.53,0,0.973-0.417,0.998-0.952  C61.194,61.236,60.769,60.768,60.217,60.741z"></path><path xmlns="http://www.w3.org/2000/svg" d="M69.094,10c-8.348,0-15.553,4.901-18.948,11.966l-9.032-11.581c-0.163-0.209-0.402-0.345-0.665-0.377  c-0.263-0.031-0.529,0.041-0.738,0.204L10.51,32.986c-0.209,0.163-0.345,0.402-0.377,0.665c-0.033,0.264,0.041,0.529,0.204,0.738  l43.072,55.226C53.605,89.868,53.9,90,54.198,90c0.215,0,0.432-0.069,0.614-0.212l29.201-22.774  c0.209-0.163,0.345-0.402,0.377-0.665c0.033-0.264-0.041-0.529-0.204-0.738L73.291,51.64c9.592-1.951,16.834-10.449,16.834-20.609  C90.125,19.435,80.69,10,69.094,10z M40.152,12.403l9.113,11.684c-0.765,2.178-1.203,4.508-1.203,6.944  c0,3.62,0.92,7.028,2.537,10.006c-1.657,1.298-6.95,6.071-6.221,13.516c-0.851-0.392-1.62-0.73-2.343-1.026  c-0.508-0.207-1.094,0.035-1.305,0.547c-0.209,0.511,0.036,1.095,0.547,1.305c1.038,0.425,2.168,0.932,3.544,1.592  c0.129,0.493,0.276,0.993,0.461,1.506c2.729,7.569,0.603,14.026-0.588,16.714L29.069,55.156c0.444-0.324,0.902-0.615,1.383-0.834  c0.502-0.229,0.725-0.821,0.496-1.324c-0.228-0.501-0.817-0.728-1.324-0.496c-0.623,0.283-1.213,0.659-1.782,1.08L12.528,33.948  L40.152,12.403z M73.801,55.546c-0.925,0.74-1.87,1.426-2.823,2.02c-0.469,0.293-0.611,0.91-0.319,1.378  c0.19,0.304,0.516,0.471,0.85,0.471c0.181,0,0.364-0.049,0.528-0.151c1.012-0.632,2.014-1.358,2.993-2.141l6.965,8.93L54.371,87.597  l-8.297-10.638c1.13-2.165,4.466-9.795,1.089-19.16c-2.997-8.312,2.631-13.592,4.477-15.048c3.781,5.612,10.193,9.312,17.454,9.312  c0.646,0,1.283-0.04,1.915-0.097L73.801,55.546z M69.094,50.062c-10.494,0-19.031-8.537-19.031-19.031S58.6,12,69.094,12  s19.031,8.537,19.031,19.031S79.588,50.062,69.094,50.062z"></path><path xmlns="http://www.w3.org/2000/svg" d="M69.094,13.149c-9.86,0-17.882,8.021-17.882,17.882c0,4.973,2.044,9.474,5.331,12.719c0.035,0.052,0.057,0.11,0.103,0.155  c0.074,0.074,0.163,0.121,0.252,0.167c3.198,2.993,7.48,4.841,12.196,4.841c9.86,0,17.882-8.021,17.882-17.882  S78.954,13.149,69.094,13.149z M57.361,20.365l1.658,1.658c0.195,0.195,0.451,0.293,0.707,0.293s0.512-0.098,0.707-0.293  c0.391-0.391,0.391-1.023,0-1.414l-1.642-1.642c2.561-2.191,5.824-3.57,9.401-3.773v2.34c0,0.553,0.447,1,1,1s1-0.447,1-1v-2.33  c3.693,0.255,7.036,1.773,9.609,4.131l-1.709,1.709c-0.391,0.391-0.391,1.023,0,1.414c0.195,0.195,0.451,0.293,0.707,0.293  s0.512-0.098,0.707-0.293l1.689-1.688c2.085,2.455,3.433,5.547,3.714,8.941h-2.262c-0.553,0-1,0.447-1,1s0.447,1,1,1h2.295  c-0.156,3.663-1.548,7.007-3.784,9.621l-1.456-1.456c-0.391-0.391-1.023-0.391-1.414,0s-0.391,1.023,0,1.414l1.473,1.473  c-2.568,2.336-5.894,3.84-9.568,4.094v-2.01c0-0.553-0.447-1-1-1s-1,0.447-1,1v2.02c-3.557-0.201-6.804-1.565-9.359-3.735  l1.359-1.36c0.391-0.391,0.391-1.023,0-1.414s-1.023-0.391-1.414,0l-1.38,1.38c-2.446-2.67-3.988-6.169-4.152-10.027h2.152  c0.553,0,1-0.447,1-1s-0.447-1-1-1h-2.12C53.576,26.125,55.071,22.882,57.361,20.365z"></path><path xmlns="http://www.w3.org/2000/svg" d="M62.798,38.585c0.155,0,0.312-0.036,0.457-0.11l8.449-4.339c0.186-0.096,0.337-0.247,0.433-0.433l4.339-8.449  c0.198-0.387,0.125-0.857-0.183-1.164c-0.308-0.308-0.778-0.38-1.164-0.183l-8.449,4.339c-0.186,0.096-0.337,0.247-0.433,0.433  l-4.339,8.449c-0.198,0.387-0.125,0.857,0.183,1.164C62.283,38.484,62.539,38.585,62.798,38.585z M67.88,29.879l5.396-2.771  l-2.771,5.396l-5.396,2.771L67.88,29.879z"></path></g><g id="SvgjsG1035" featureKey="textGroupContainer" transform="matrix(1,0,0,1,355,0)" fill="#2d8582"><rect xmlns="http://www.w3.org/2000/svg" y="0" height="1" width="1" opacity="0"></rect><rect xmlns="http://www.w3.org/2000/svg" y="0" x="-235" width="3" height="280"></rect></g><g id="SvgjsG1036" featureKey="YhTCwJ-0" transform="matrix(8.196720798885108,0,0,8.196720798885108,130.29508784277945,25.081969865769565)" fill="#338d8a"><path d="M8.14 5.48 q1.66 0 2.94 0.59 t2.06 1.63 l-1.46 1.06 q-0.64 -0.86 -1.58 -1.29 t-1.96 -0.43 q-2.26 0 -3.81 1.72 t-1.59 4.16 q0 2.52 1.54 4.19 t3.86 1.69 q2.54 0 4.1 -1.98 l1.26 1.06 q-1.86 2.48 -5.36 2.48 q-3.1 0 -5.13 -2.14 t-2.07 -5.3 q0 -3.16 2.05 -5.28 t5.15 -2.16 z M25.34 5.84 l0 1.56 l-4.68 0 l0 12.6 l-1.68 0 l0 -12.6 l-4.68 0 l0 -1.56 l11.04 0 z"></path></g><g id="SvgjsG1037" featureKey="duLK5n-0" transform="matrix(0.5542469310635505,0,0,0.5542469310635505,127.17223234377079,199.0514078173123)" fill="#aeccc6"><path d="M26.996000000000002 18.46 c1.78 0 3.44 -0.82 4.54 -2.26 l1.4 1.04 c-1.42 1.9 -3.6 2.98 -5.94 2.98 c-4.12 0 -7.46 -3.34 -7.46 -7.46 c0 -4.1 3.34 -7.44 7.46 -7.44 c2.36 0 4.54 1.1 5.96 3 l-1.42 1.04 c-1.08 -1.46 -2.74 -2.28 -4.54 -2.28 c-3.16 0 -5.7 2.54 -5.7 5.68 c0 3.16 2.54 5.7 5.7 5.7 z M58.55200000000001 20 l0 -7.42 l-7.3 0 l0 7.42 l-1.8 0 l0 -14.24 l1.8 0 l0 5.08 l7.3 0 l0 -5.08 l1.8 0 l0 14.24 l-1.8 0 z M77.70800000000001 20 l0 -14.24 l9 0 l0 1.72 l-7.2 0 l0 3.34 l6.28 0 l0 1.78 l-6.28 0 l0 5.64 l7.02 0 l0 1.76 l-8.82 0 z M103.144 20 l0 -14.24 l9 0 l0 1.74 l-7.2 0 l0 3.34 l3.96 0 l0 1.76 l-3.96 0 l0 7.4 l-1.8 0 z M134.22000000000003 18.46 c1.78 0 3.44 -0.82 4.54 -2.26 l1.4 1.04 c-1.42 1.9 -3.6 2.98 -5.94 2.98 c-4.12 0 -7.46 -3.34 -7.46 -7.46 c0 -4.1 3.34 -7.44 7.46 -7.44 c2.36 0 4.54 1.1 5.96 3 l-1.42 1.04 c-1.08 -1.46 -2.74 -2.28 -4.54 -2.28 c-3.16 0 -5.7 2.54 -5.7 5.68 c0 3.16 2.54 5.7 5.7 5.7 z M165.776 20 l0 -7.42 l-7.3 0 l0 7.42 l-1.8 0 l0 -14.24 l1.8 0 l0 5.08 l7.3 0 l0 -5.08 l1.8 0 l0 14.24 l-1.8 0 z M194.43200000000002 20 l-1.58 -4.14 l-5.82 0 l-1.58 4.14 l-1.92 0 l5.48 -14.24 l1.86 0 l5.5 14.24 l-1.94 0 z M192.15200000000002 14.1 l-2.2 -5.76 l-2.22 5.76 l4.42 0 z M219.14800000000002 5.32 c4.1 0 7.46 3.34 7.46 7.46 c0 4.1 -3.36 7.42 -7.46 7.42 s-7.44 -3.32 -7.44 -7.42 c0 -4.12 3.34 -7.46 7.44 -7.46 z M219.14800000000002 18.44 c3.12 0 5.64 -2.56 5.64 -5.66 c0 -3.12 -2.52 -5.7 -5.64 -5.7 s-5.64 2.58 -5.64 5.7 c0 3.1 2.52 5.66 5.64 5.66 z M251.76400000000004 5.76 l1.8 0 l0 9.02 c0 3 -2.44 5.42 -5.44 5.42 c-2.98 0 -5.42 -2.42 -5.42 -5.42 l0 -9.02 l1.78 0 l0 9.02 c0 2.02 1.64 3.68 3.64 3.68 c2.02 0 3.64 -1.66 3.64 -3.68 l0 -9.02 z M271.02000000000004 20 l0 -14.24 l9 0 l0 1.72 l-7.2 0 l0 3.34 l6.28 0 l0 1.78 l-6.28 0 l0 5.64 l7.02 0 l0 1.76 l-8.82 0 z M306.27600000000007 20 l-7.62 -11.26 l0 11.26 l-1.8 0 l0 -14.24 l1.96 0 l7.6 11.26 l0 -11.26 l1.8 0 l0 14.24 l-1.94 0 z"></path></g>
			</g>
		</svg>
	